<svg width="390" height="2934" viewBox="0 0 390 2934" fill="none" xmlns="http://www.w3.org/2000/svg">
<g clip-path="url(#clip0_145_8)">
<rect width="390" height="2934" fill="url(#paint0_linear_145_8)" fill-opacity="0.9"/>
<g clip-path="url(#clip1_145_8)">
<path d="M27.85 648.4L23.1343 653.638L26.6581 659.741L20.2199 656.875L15.5042 662.112L16.2409 655.103L9.80269 652.237L16.6961 650.771L17.4328 643.762L20.9565 649.866L27.85 648.4Z" fill="#F5F5F5" fill-opacity="0.75"/>
<path d="M254.615 704.906L260.626 707.978L263.892 702.07L264.236 708.812L270.986 708.685L265.32 712.355L268.804 718.137L262.793 715.064L259.527 720.973L259.183 714.231L252.433 714.357L258.099 710.688L254.615 704.906Z" fill="#F5F5F5" fill-opacity="0.35"/>
<path d="M96.5365 284.933L88.8602 289.365L90.7031 298.035L84.116 292.104L76.4397 296.536L80.045 288.439L73.4579 282.508L82.2731 283.434L85.8784 275.337L87.7213 284.007L96.5365 284.933Z" fill="#F5F5F5" fill-opacity="0.6"/>
<path d="M141.304 447.899L136.269 445.213L133.421 450.159L133.229 444.455L127.523 444.463L132.366 441.445L129.507 436.506L134.542 439.192L137.389 434.246L137.581 439.949L143.288 439.942L138.444 442.96L141.304 447.899Z" fill="#F5F5F5"/>
<path d="M371.585 127.488L376.72 133.542L384.658 133.584L378.604 138.719L378.562 146.658L373.427 140.604L365.489 140.561L371.542 135.426L371.585 127.488Z" fill="#F5F5F5" fill-opacity="0.65"/>
<path d="M149.933 574.341L157.507 572.592L158.185 564.848L162.189 571.511L169.764 569.762L164.663 575.629L168.667 582.293L161.511 579.256L156.411 585.123L157.089 577.378L149.933 574.341Z" fill="#F5F5F5" fill-opacity="0.6"/>
</g>
<g clip-path="url(#clip2_145_8)">
<path d="M23.85 1490.4L19.1343 1495.64L22.6581 1501.74L16.2199 1498.87L11.5042 1504.11L12.2409 1497.1L5.80269 1494.24L12.6961 1492.77L13.4328 1485.76L16.9565 1491.87L23.85 1490.4Z" fill="#F5F5F5" fill-opacity="0.75"/>
<path d="M250.615 1546.91L256.626 1549.98L259.892 1544.07L260.236 1550.81L266.986 1550.69L261.32 1554.35L264.804 1560.14L258.793 1557.06L255.527 1562.97L255.183 1556.23L248.433 1556.36L254.099 1552.69L250.615 1546.91Z" fill="#F5F5F5" fill-opacity="0.35"/>
<path d="M92.5365 1126.93L84.8602 1131.37L86.7031 1140.04L80.116 1134.1L72.4397 1138.54L76.045 1130.44L69.4579 1124.51L78.2731 1125.43L81.8784 1117.34L83.7213 1126.01L92.5365 1126.93Z" fill="#F5F5F5" fill-opacity="0.6"/>
<path d="M137.304 1289.9L132.269 1287.21L129.421 1292.16L129.229 1286.46L123.523 1286.46L128.366 1283.44L125.507 1278.51L130.542 1281.19L133.389 1276.25L133.581 1281.95L139.288 1281.94L134.444 1284.96L137.304 1289.9Z" fill="#F5F5F5"/>
<path d="M367.585 969.488L372.72 975.542L380.658 975.584L374.604 980.719L374.562 988.658L369.427 982.604L361.489 982.561L367.542 977.426L367.585 969.488Z" fill="#F5F5F5" fill-opacity="0.65"/>
<path d="M145.933 1416.34L153.507 1414.59L154.185 1406.85L158.189 1413.51L165.764 1411.76L160.663 1417.63L164.667 1424.29L157.511 1421.26L152.411 1427.12L153.089 1419.38L145.933 1416.34Z" fill="#F5F5F5" fill-opacity="0.6"/>
</g>
<g clip-path="url(#clip3_145_8)">
<path d="M23.85 2299.4L19.1343 2304.64L22.6581 2310.74L16.2199 2307.87L11.5042 2313.11L12.2409 2306.1L5.80269 2303.24L12.6961 2301.77L13.4328 2294.76L16.9565 2300.87L23.85 2299.4Z" fill="#F5F5F5" fill-opacity="0.75"/>
<path d="M250.615 2355.91L256.626 2358.98L259.892 2353.07L260.236 2359.81L266.986 2359.69L261.32 2363.35L264.804 2369.14L258.793 2366.06L255.527 2371.97L255.183 2365.23L248.433 2365.36L254.099 2361.69L250.615 2355.91Z" fill="#F5F5F5" fill-opacity="0.35"/>
<path d="M92.5365 1935.93L84.8602 1940.37L86.7031 1949.04L80.116 1943.1L72.4397 1947.54L76.045 1939.44L69.4579 1933.51L78.2731 1934.43L81.8784 1926.34L83.7213 1935.01L92.5365 1935.93Z" fill="#F5F5F5" fill-opacity="0.6"/>
<path d="M137.304 2098.9L132.269 2096.21L129.421 2101.16L129.229 2095.46L123.523 2095.46L128.366 2092.44L125.507 2087.51L130.542 2090.19L133.389 2085.25L133.581 2090.95L139.288 2090.94L134.444 2093.96L137.304 2098.9Z" fill="#F5F5F5"/>
<path d="M367.585 1778.49L372.72 1784.54L380.658 1784.58L374.604 1789.72L374.562 1797.66L369.427 1791.6L361.489 1791.56L367.542 1786.43L367.585 1778.49Z" fill="#F5F5F5" fill-opacity="0.65"/>
<path d="M145.933 2225.34L153.507 2223.59L154.185 2215.85L158.189 2222.51L165.764 2220.76L160.663 2226.63L164.667 2233.29L157.511 2230.26L152.411 2236.12L153.089 2228.38L145.933 2225.34Z" fill="#F5F5F5" fill-opacity="0.6"/>
</g>
<g clip-path="url(#clip4_145_8)">
<path d="M32.85 2813.4L28.1343 2818.64L31.6581 2824.74L25.2199 2821.87L20.5042 2827.11L21.2409 2820.1L14.8027 2817.24L21.6961 2815.77L22.4328 2808.76L25.9565 2814.87L32.85 2813.4Z" fill="#F5F5F5" fill-opacity="0.75"/>
<path d="M259.615 2869.91L265.626 2872.98L268.892 2867.07L269.236 2873.81L275.986 2873.69L270.32 2877.35L273.804 2883.14L267.793 2880.06L264.527 2885.97L264.183 2879.23L257.433 2879.36L263.099 2875.69L259.615 2869.91Z" fill="#F5F5F5" fill-opacity="0.35"/>
<path d="M101.537 2449.93L93.8602 2454.37L95.7031 2463.04L89.116 2457.1L81.4397 2461.54L85.045 2453.44L78.4579 2447.51L87.2731 2448.43L90.8784 2440.34L92.7213 2449.01L101.537 2449.93Z" fill="#F5F5F5" fill-opacity="0.6"/>
<path d="M146.304 2612.9L141.269 2610.21L138.421 2615.16L138.229 2609.46L132.523 2609.46L137.366 2606.44L134.507 2601.51L139.542 2604.19L142.389 2599.25L142.581 2604.95L148.288 2604.94L143.444 2607.96L146.304 2612.9Z" fill="#F5F5F5"/>
<path d="M376.585 2292.49L381.72 2298.54L389.658 2298.58L383.604 2303.72L383.562 2311.66L378.427 2305.6L370.489 2305.56L376.542 2300.43L376.585 2292.49Z" fill="#F5F5F5" fill-opacity="0.65"/>
<path d="M154.933 2739.34L162.507 2737.59L163.185 2729.85L167.189 2736.51L174.764 2734.76L169.663 2740.63L173.667 2747.29L166.511 2744.26L161.411 2750.12L162.089 2742.38L154.933 2739.34Z" fill="#F5F5F5" fill-opacity="0.6"/>
</g>
</g>
<defs>
<linearGradient id="paint0_linear_145_8" x1="0" y1="0" x2="590.431" y2="40.9044" gradientUnits="userSpaceOnUse">
<stop stop-color="#EF83F8"/>
<stop offset="0.126354" stop-color="#FFD2B8" stop-opacity="0.56"/>
<stop offset="0.240661" stop-color="#FFF6A5" stop-opacity="0.38"/>
<stop offset="0.426754" stop-color="#73FFC4" stop-opacity="0.4"/>
<stop offset="0.550763" stop-color="#6B8CFF" stop-opacity="0.29"/>
<stop offset="0.705246" stop-color="#D5C1FF"/>
</linearGradient>
<clipPath id="clip0_145_8">
<rect width="390" height="2934" fill="white"/>
</clipPath>
<clipPath id="clip1_145_8">
<rect width="1431" height="769" fill="white" transform="translate(4)"/>
</clipPath>
<clipPath id="clip2_145_8">
<rect width="1431" height="769" fill="white" transform="translate(0 842)"/>
</clipPath>
<clipPath id="clip3_145_8">
<rect width="1431" height="769" fill="white" transform="translate(0 1651)"/>
</clipPath>
<clipPath id="clip4_145_8">
<rect width="1431" height="769" fill="white" transform="translate(9 2165)"/>
</clipPath>
</defs>
</svg>
