<svg width="1440" height="2934" viewBox="0 0 1440 2934" fill="none" xmlns="http://www.w3.org/2000/svg">
<g clip-path="url(#clip0_87_590)">
<rect width="1440" height="2934" fill="url(#paint0_linear_87_590)" fill-opacity="0.9"/>
<g clip-path="url(#clip1_87_590)">
<path d="M1389.76 87.2248L1398.55 88.1597L1399.77 79.4059L1403.35 87.4845L1411.54 84.1634L1406.34 91.3071L1413.31 96.7398L1404.52 95.8049L1403.3 104.559L1399.72 96.48L1391.53 99.8012L1396.73 92.6574L1389.76 87.2248Z" fill="#F5F5F5" fill-opacity="0.35"/>
<path d="M27.85 648.4L23.1343 653.638L26.6581 659.741L20.2199 656.875L15.5042 662.112L16.2409 655.103L9.80269 652.237L16.6961 650.771L17.4328 643.762L20.9565 649.866L27.85 648.4Z" fill="#F5F5F5" fill-opacity="0.75"/>
<path d="M661.01 435.845L657.942 430.738L652.137 432.078L656.045 427.582L652.977 422.475L658.461 424.803L662.37 420.307L661.85 426.242L667.334 428.569L661.529 429.91L661.01 435.845Z" fill="#F5F5F5" fill-opacity="0.6"/>
<path d="M254.615 704.906L260.626 707.978L263.892 702.07L264.236 708.812L270.986 708.685L265.32 712.355L268.804 718.137L262.793 715.064L259.527 720.973L259.183 714.231L252.433 714.357L258.099 710.688L254.615 704.906Z" fill="#F5F5F5" fill-opacity="0.35"/>
<path d="M987.558 136.895L987.118 130.59L980.984 129.061L986.845 126.693L986.404 120.387L990.467 125.229L996.328 122.861L992.978 128.222L997.041 133.064L990.908 131.535L987.558 136.895Z" fill="#F5F5F5" fill-opacity="0.9"/>
<path d="M856.18 440.366L859.721 435.056L857.994 428.912L863.304 432.453L869.448 430.726L865.908 436.036L867.634 442.18L862.324 438.64L856.18 440.366Z" fill="#F5F5F5" fill-opacity="0.85"/>
<path d="M1006.07 736.79L1001.83 731.539L996.443 735.608L998.87 729.309L992.653 726.679L999.322 725.631L998.491 718.932L1002.73 724.184L1008.12 720.114L1005.69 726.414L1011.91 729.043L1005.24 730.091L1006.07 736.79Z" fill="#F5F5F5" fill-opacity="0.65"/>
<path d="M96.5365 284.933L88.8602 289.365L90.7031 298.035L84.116 292.104L76.4397 296.536L80.045 288.439L73.4579 282.508L82.2731 283.434L85.8784 275.337L87.7213 284.007L96.5365 284.933Z" fill="#F5F5F5" fill-opacity="0.6"/>
<path d="M141.304 447.899L136.269 445.213L133.421 450.159L133.229 444.455L127.523 444.463L132.366 441.445L129.507 436.506L134.542 439.192L137.389 434.246L137.581 439.949L143.288 439.942L138.444 442.96L141.304 447.899Z" fill="#F5F5F5"/>
<path d="M371.585 127.488L376.72 133.542L384.658 133.584L378.604 138.719L378.562 146.658L373.427 140.604L365.489 140.561L371.542 135.426L371.585 127.488Z" fill="#F5F5F5" fill-opacity="0.65"/>
<path d="M1032.52 347.888L1037.66 340.279L1030.22 334.889L1039.39 335.541L1040.33 326.404L1044.35 334.666L1052.74 330.919L1047.59 338.528L1055.03 343.918L1045.87 343.266L1044.92 352.403L1040.9 344.141L1032.52 347.888Z" fill="#F5F5F5" fill-opacity="0.65"/>
<path d="M149.933 574.341L157.507 572.592L158.185 564.848L162.189 571.511L169.764 569.762L164.663 575.629L168.667 582.293L161.511 579.256L156.411 585.123L157.089 577.378L149.933 574.341Z" fill="#F5F5F5" fill-opacity="0.6"/>
<path d="M912.637 289.067L915.309 283.338L910.686 279.027L916.96 279.797L919.631 274.069L920.837 280.273L927.111 281.044L921.582 284.108L922.788 290.313L918.166 286.002L912.637 289.067Z" fill="#F5F5F5" fill-opacity="0.35"/>
<path d="M856.802 70.165L850.329 73.2256L848.439 80.1318L845.378 73.6588L838.472 71.7687L844.945 68.708L846.835 61.8018L849.896 68.2749L856.802 70.165Z" fill="#F5F5F5" fill-opacity="0.65"/>
<path d="M842.114 180.962L847.801 183.039L850.062 177.423L851.105 183.387L857.1 182.537L852.457 186.423L856.191 191.189L850.504 189.111L848.243 194.728L847.199 188.764L841.204 189.614L845.847 185.728L842.114 180.962Z" fill="#F5F5F5" fill-opacity="0.45"/>
<path d="M1259.2 679.398L1257.25 672.573L1250.37 674.298L1255.3 669.198L1250.37 664.098L1257.25 665.824L1259.2 658.998L1261.15 665.824L1268.03 664.098L1263.1 669.198L1268.03 674.298L1261.15 672.573L1259.2 679.398Z" fill="#F5F5F5" fill-opacity="0.9"/>
<path d="M616.695 639.696L619.265 645.961L625.693 648.087L619.429 650.657L617.302 657.086L614.732 650.821L608.304 648.695L614.568 646.125L616.695 639.696Z" fill="#F5F5F5" fill-opacity="0.75"/>
<path d="M1042.16 622.108L1035.71 629.602L1037.21 639.372L1029.71 632.928L1019.94 634.422L1026.39 626.928L1024.89 617.157L1032.39 623.602L1042.16 622.108Z" fill="#F5F5F5" fill-opacity="0.45"/>
<path d="M917.274 111.312L920.99 116.425L927.001 114.472L923.286 119.586L927.001 124.699L920.99 122.746L917.274 127.86L917.274 121.539L911.263 119.586L917.274 117.632L917.274 111.312Z" fill="#F5F5F5" fill-opacity="0.6"/>
<path d="M1216.75 150.33L1220.8 155.268L1227.18 155.414L1222.24 159.457L1222.09 165.837L1218.05 160.899L1211.67 160.753L1216.61 156.711L1216.75 150.33Z" fill="#F5F5F5" fill-opacity="0.65"/>
<path d="M680.542 300.194L676.502 296.673L672.853 300.597L673.882 295.338L668.659 294.139L673.728 292.401L672.155 287.278L676.195 290.799L679.844 286.875L678.815 292.134L684.038 293.333L678.969 295.071L680.542 300.194Z" fill="#F5F5F5" fill-opacity="0.85"/>
<path d="M1409.74 331.111L1415.54 324.602L1414.37 315.964L1420.88 321.762L1429.52 320.595L1423.72 327.104L1424.89 335.742L1418.38 329.944L1409.74 331.111Z" fill="#F5F5F5"/>
<path d="M684.419 195.073L691.939 197.617L698.765 193.565L696.221 201.085L700.273 207.911L692.753 205.367L685.927 209.419L688.471 201.899L684.419 195.073Z" fill="#F5F5F5" fill-opacity="0.6"/>
<path d="M753.805 530.188L757.559 536.213L763.702 532.656L760.361 538.919L766.513 542.461L759.419 542.7L759.428 549.798L755.674 543.774L749.531 547.331L752.871 541.067L746.719 537.526L753.814 537.287L753.805 530.188Z" fill="#F5F5F5" fill-opacity="0.35"/>
<path d="M572.628 239.484L577.203 241.528L579.394 237.022L579.911 242.006L584.909 241.65L580.852 244.59L583.659 248.741L579.084 246.697L576.893 251.203L576.376 246.219L571.378 246.575L575.435 243.635L572.628 239.484Z" fill="#F5F5F5" fill-opacity="0.65"/>
<path d="M847.045 240.863L844.47 236.565L840.091 239L842.525 234.621L838.227 232.045L843.237 231.964L843.318 226.954L845.894 231.252L850.273 228.818L847.838 233.197L852.137 235.772L847.126 235.853L847.045 240.863Z" fill="#F5F5F5" fill-opacity="0.85"/>
</g>
<g clip-path="url(#clip2_87_590)">
<path d="M1385.76 929.225L1394.55 930.16L1395.77 921.406L1399.35 929.485L1407.54 926.163L1402.34 933.307L1409.31 938.74L1400.52 937.805L1399.3 946.559L1395.72 938.48L1387.53 941.801L1392.73 934.657L1385.76 929.225Z" fill="#F5F5F5" fill-opacity="0.35"/>
<path d="M23.85 1490.4L19.1343 1495.64L22.6581 1501.74L16.2199 1498.87L11.5042 1504.11L12.2409 1497.1L5.80269 1494.24L12.6961 1492.77L13.4328 1485.76L16.9565 1491.87L23.85 1490.4Z" fill="#F5F5F5" fill-opacity="0.75"/>
<path d="M657.01 1277.84L653.942 1272.74L648.137 1274.08L652.045 1269.58L648.977 1264.48L654.461 1266.8L658.37 1262.31L657.85 1268.24L663.334 1270.57L657.529 1271.91L657.01 1277.84Z" fill="#F5F5F5" fill-opacity="0.6"/>
<path d="M250.615 1546.91L256.626 1549.98L259.892 1544.07L260.236 1550.81L266.986 1550.69L261.32 1554.35L264.804 1560.14L258.793 1557.06L255.527 1562.97L255.183 1556.23L248.433 1556.36L254.099 1552.69L250.615 1546.91Z" fill="#F5F5F5" fill-opacity="0.35"/>
<path d="M983.558 978.895L983.118 972.59L976.984 971.061L982.845 968.693L982.404 962.387L986.467 967.229L992.328 964.861L988.978 970.222L993.041 975.064L986.908 973.535L983.558 978.895Z" fill="#F5F5F5" fill-opacity="0.9"/>
<path d="M852.18 1282.37L855.721 1277.06L853.994 1270.91L859.304 1274.45L865.448 1272.73L861.908 1278.04L863.634 1284.18L858.324 1280.64L852.18 1282.37Z" fill="#F5F5F5" fill-opacity="0.85"/>
<path d="M1002.07 1578.79L997.829 1573.54L992.443 1577.61L994.87 1571.31L988.653 1568.68L995.322 1567.63L994.491 1560.93L998.733 1566.18L1004.12 1562.11L1001.69 1568.41L1007.91 1571.04L1001.24 1572.09L1002.07 1578.79Z" fill="#F5F5F5" fill-opacity="0.65"/>
<path d="M92.5365 1126.93L84.8602 1131.37L86.7031 1140.04L80.116 1134.1L72.4397 1138.54L76.045 1130.44L69.4579 1124.51L78.2731 1125.43L81.8784 1117.34L83.7213 1126.01L92.5365 1126.93Z" fill="#F5F5F5" fill-opacity="0.6"/>
<path d="M137.304 1289.9L132.269 1287.21L129.421 1292.16L129.229 1286.46L123.523 1286.46L128.366 1283.44L125.507 1278.51L130.542 1281.19L133.389 1276.25L133.581 1281.95L139.288 1281.94L134.444 1284.96L137.304 1289.9Z" fill="#F5F5F5"/>
<path d="M367.585 969.488L372.72 975.542L380.658 975.584L374.604 980.719L374.562 988.658L369.427 982.604L361.489 982.561L367.542 977.426L367.585 969.488Z" fill="#F5F5F5" fill-opacity="0.65"/>
<path d="M1028.52 1189.89L1033.66 1182.28L1026.22 1176.89L1035.39 1177.54L1036.33 1168.4L1040.35 1176.67L1048.74 1172.92L1043.59 1180.53L1051.03 1185.92L1041.87 1185.27L1040.92 1194.4L1036.9 1186.14L1028.52 1189.89Z" fill="#F5F5F5" fill-opacity="0.65"/>
<path d="M145.933 1416.34L153.507 1414.59L154.185 1406.85L158.189 1413.51L165.764 1411.76L160.663 1417.63L164.667 1424.29L157.511 1421.26L152.411 1427.12L153.089 1419.38L145.933 1416.34Z" fill="#F5F5F5" fill-opacity="0.6"/>
<path d="M908.637 1131.07L911.309 1125.34L906.686 1121.03L912.96 1121.8L915.631 1116.07L916.837 1122.27L923.111 1123.04L917.582 1126.11L918.788 1132.31L914.166 1128L908.637 1131.07Z" fill="#F5F5F5" fill-opacity="0.35"/>
<path d="M852.802 912.165L846.329 915.226L844.439 922.132L841.378 915.659L834.472 913.769L840.945 910.708L842.835 903.802L845.896 910.275L852.802 912.165Z" fill="#F5F5F5" fill-opacity="0.65"/>
<path d="M838.114 1022.96L843.801 1025.04L846.062 1019.42L847.105 1025.39L853.1 1024.54L848.457 1028.42L852.191 1033.19L846.504 1031.11L844.243 1036.73L843.199 1030.76L837.204 1031.61L841.847 1027.73L838.114 1022.96Z" fill="#F5F5F5" fill-opacity="0.45"/>
<path d="M1255.2 1521.4L1253.25 1514.57L1246.37 1516.3L1251.3 1511.2L1246.37 1506.1L1253.25 1507.82L1255.2 1501L1257.15 1507.82L1264.03 1506.1L1259.1 1511.2L1264.03 1516.3L1257.15 1514.57L1255.2 1521.4Z" fill="#F5F5F5" fill-opacity="0.9"/>
<path d="M612.695 1481.7L615.265 1487.96L621.693 1490.09L615.429 1492.66L613.302 1499.09L610.732 1492.82L604.304 1490.69L610.568 1488.12L612.695 1481.7Z" fill="#F5F5F5" fill-opacity="0.75"/>
<path d="M1038.16 1464.11L1031.71 1471.6L1033.21 1481.37L1025.71 1474.93L1015.94 1476.42L1022.39 1468.93L1020.89 1459.16L1028.39 1465.6L1038.16 1464.11Z" fill="#F5F5F5" fill-opacity="0.45"/>
<path d="M913.274 953.312L916.99 958.425L923.001 956.472L919.286 961.586L923.001 966.699L916.99 964.746L913.274 969.86L913.274 963.539L907.263 961.586L913.274 959.632L913.274 953.312Z" fill="#F5F5F5" fill-opacity="0.6"/>
<path d="M1212.75 992.33L1216.8 997.268L1223.18 997.414L1218.24 1001.46L1218.09 1007.84L1214.05 1002.9L1207.67 1002.75L1212.61 998.711L1212.75 992.33Z" fill="#F5F5F5" fill-opacity="0.65"/>
<path d="M676.542 1142.19L672.502 1138.67L668.853 1142.6L669.882 1137.34L664.659 1136.14L669.728 1134.4L668.155 1129.28L672.195 1132.8L675.844 1128.88L674.815 1134.13L680.038 1135.33L674.969 1137.07L676.542 1142.19Z" fill="#F5F5F5" fill-opacity="0.85"/>
<path d="M1405.74 1173.11L1411.54 1166.6L1410.37 1157.96L1416.88 1163.76L1425.52 1162.59L1419.72 1169.1L1420.89 1177.74L1414.38 1171.94L1405.74 1173.11Z" fill="#F5F5F5"/>
<path d="M680.419 1037.07L687.939 1039.62L694.765 1035.57L692.221 1043.08L696.273 1049.91L688.753 1047.37L681.927 1051.42L684.471 1043.9L680.419 1037.07Z" fill="#F5F5F5" fill-opacity="0.6"/>
<path d="M749.805 1372.19L753.559 1378.21L759.702 1374.66L756.361 1380.92L762.513 1384.46L755.419 1384.7L755.428 1391.8L751.674 1385.77L745.531 1389.33L748.871 1383.07L742.719 1379.53L749.814 1379.29L749.805 1372.19Z" fill="#F5F5F5" fill-opacity="0.35"/>
<path d="M568.628 1081.48L573.203 1083.53L575.394 1079.02L575.911 1084.01L580.909 1083.65L576.852 1086.59L579.659 1090.74L575.084 1088.7L572.893 1093.2L572.376 1088.22L567.378 1088.58L571.435 1085.63L568.628 1081.48Z" fill="#F5F5F5" fill-opacity="0.65"/>
<path d="M843.045 1082.86L840.47 1078.57L836.091 1081L838.525 1076.62L834.227 1074.05L839.237 1073.96L839.318 1068.95L841.894 1073.25L846.273 1070.82L843.838 1075.2L848.137 1077.77L843.126 1077.85L843.045 1082.86Z" fill="#F5F5F5" fill-opacity="0.85"/>
</g>
<g clip-path="url(#clip3_87_590)">
<path d="M1385.76 1738.22L1394.55 1739.16L1395.77 1730.41L1399.35 1738.48L1407.54 1735.16L1402.34 1742.31L1409.31 1747.74L1400.52 1746.8L1399.3 1755.56L1395.72 1747.48L1387.53 1750.8L1392.73 1743.66L1385.76 1738.22Z" fill="#F5F5F5" fill-opacity="0.35"/>
<path d="M23.85 2299.4L19.1343 2304.64L22.6581 2310.74L16.2199 2307.87L11.5042 2313.11L12.2409 2306.1L5.80269 2303.24L12.6961 2301.77L13.4328 2294.76L16.9565 2300.87L23.85 2299.4Z" fill="#F5F5F5" fill-opacity="0.75"/>
<path d="M657.01 2086.84L653.942 2081.74L648.137 2083.08L652.045 2078.58L648.977 2073.48L654.461 2075.8L658.37 2071.31L657.85 2077.24L663.334 2079.57L657.529 2080.91L657.01 2086.84Z" fill="#F5F5F5" fill-opacity="0.6"/>
<path d="M250.615 2355.91L256.626 2358.98L259.892 2353.07L260.236 2359.81L266.986 2359.69L261.32 2363.35L264.804 2369.14L258.793 2366.06L255.527 2371.97L255.183 2365.23L248.433 2365.36L254.099 2361.69L250.615 2355.91Z" fill="#F5F5F5" fill-opacity="0.35"/>
<path d="M983.558 1787.9L983.118 1781.59L976.984 1780.06L982.845 1777.69L982.404 1771.39L986.467 1776.23L992.328 1773.86L988.978 1779.22L993.041 1784.06L986.908 1782.53L983.558 1787.9Z" fill="#F5F5F5" fill-opacity="0.9"/>
<path d="M852.18 2091.37L855.721 2086.06L853.994 2079.91L859.304 2083.45L865.448 2081.73L861.908 2087.04L863.634 2093.18L858.324 2089.64L852.18 2091.37Z" fill="#F5F5F5" fill-opacity="0.85"/>
<path d="M1002.07 2387.79L997.829 2382.54L992.443 2386.61L994.87 2380.31L988.653 2377.68L995.322 2376.63L994.491 2369.93L998.733 2375.18L1004.12 2371.11L1001.69 2377.41L1007.91 2380.04L1001.24 2381.09L1002.07 2387.79Z" fill="#F5F5F5" fill-opacity="0.65"/>
<path d="M92.5365 1935.93L84.8602 1940.37L86.7031 1949.04L80.116 1943.1L72.4397 1947.54L76.045 1939.44L69.4579 1933.51L78.2731 1934.43L81.8784 1926.34L83.7213 1935.01L92.5365 1935.93Z" fill="#F5F5F5" fill-opacity="0.6"/>
<path d="M137.304 2098.9L132.269 2096.21L129.421 2101.16L129.229 2095.46L123.523 2095.46L128.366 2092.44L125.507 2087.51L130.542 2090.19L133.389 2085.25L133.581 2090.95L139.288 2090.94L134.444 2093.96L137.304 2098.9Z" fill="#F5F5F5"/>
<path d="M367.585 1778.49L372.72 1784.54L380.658 1784.58L374.604 1789.72L374.562 1797.66L369.427 1791.6L361.489 1791.56L367.542 1786.43L367.585 1778.49Z" fill="#F5F5F5" fill-opacity="0.65"/>
<path d="M1028.52 1998.89L1033.66 1991.28L1026.22 1985.89L1035.39 1986.54L1036.33 1977.4L1040.35 1985.67L1048.74 1981.92L1043.59 1989.53L1051.03 1994.92L1041.87 1994.27L1040.92 2003.4L1036.9 1995.14L1028.52 1998.89Z" fill="#F5F5F5" fill-opacity="0.65"/>
<path d="M145.933 2225.34L153.507 2223.59L154.185 2215.85L158.189 2222.51L165.764 2220.76L160.663 2226.63L164.667 2233.29L157.511 2230.26L152.411 2236.12L153.089 2228.38L145.933 2225.34Z" fill="#F5F5F5" fill-opacity="0.6"/>
<path d="M908.637 1940.07L911.309 1934.34L906.686 1930.03L912.96 1930.8L915.631 1925.07L916.837 1931.27L923.111 1932.04L917.582 1935.11L918.788 1941.31L914.166 1937L908.637 1940.07Z" fill="#F5F5F5" fill-opacity="0.35"/>
<path d="M852.802 1721.16L846.329 1724.23L844.439 1731.13L841.378 1724.66L834.472 1722.77L840.945 1719.71L842.835 1712.8L845.896 1719.27L852.802 1721.16Z" fill="#F5F5F5" fill-opacity="0.65"/>
<path d="M838.114 1831.96L843.801 1834.04L846.062 1828.42L847.105 1834.39L853.1 1833.54L848.457 1837.42L852.191 1842.19L846.504 1840.11L844.243 1845.73L843.199 1839.76L837.204 1840.61L841.847 1836.73L838.114 1831.96Z" fill="#F5F5F5" fill-opacity="0.45"/>
<path d="M1255.2 2330.4L1253.25 2323.57L1246.37 2325.3L1251.3 2320.2L1246.37 2315.1L1253.25 2316.82L1255.2 2310L1257.15 2316.82L1264.03 2315.1L1259.1 2320.2L1264.03 2325.3L1257.15 2323.57L1255.2 2330.4Z" fill="#F5F5F5" fill-opacity="0.9"/>
<path d="M612.695 2290.7L615.265 2296.96L621.693 2299.09L615.429 2301.66L613.302 2308.09L610.732 2301.82L604.304 2299.69L610.568 2297.12L612.695 2290.7Z" fill="#F5F5F5" fill-opacity="0.75"/>
<path d="M1038.16 2273.11L1031.71 2280.6L1033.21 2290.37L1025.71 2283.93L1015.94 2285.42L1022.39 2277.93L1020.89 2268.16L1028.39 2274.6L1038.16 2273.11Z" fill="#F5F5F5" fill-opacity="0.45"/>
<path d="M913.274 1762.31L916.99 1767.43L923.001 1765.47L919.286 1770.59L923.001 1775.7L916.99 1773.75L913.274 1778.86L913.274 1772.54L907.263 1770.59L913.274 1768.63L913.274 1762.31Z" fill="#F5F5F5" fill-opacity="0.6"/>
<path d="M1212.75 1801.33L1216.8 1806.27L1223.18 1806.41L1218.24 1810.46L1218.09 1816.84L1214.05 1811.9L1207.67 1811.75L1212.61 1807.71L1212.75 1801.33Z" fill="#F5F5F5" fill-opacity="0.65"/>
<path d="M676.542 1951.19L672.502 1947.67L668.853 1951.6L669.882 1946.34L664.659 1945.14L669.728 1943.4L668.155 1938.28L672.195 1941.8L675.844 1937.88L674.815 1943.13L680.038 1944.33L674.969 1946.07L676.542 1951.19Z" fill="#F5F5F5" fill-opacity="0.85"/>
<path d="M1405.74 1982.11L1411.54 1975.6L1410.37 1966.96L1416.88 1972.76L1425.52 1971.59L1419.72 1978.1L1420.89 1986.74L1414.38 1980.94L1405.74 1982.11Z" fill="#F5F5F5"/>
<path d="M680.419 1846.07L687.939 1848.62L694.765 1844.57L692.221 1852.08L696.273 1858.91L688.753 1856.37L681.927 1860.42L684.471 1852.9L680.419 1846.07Z" fill="#F5F5F5" fill-opacity="0.6"/>
<path d="M749.805 2181.19L753.559 2187.21L759.702 2183.66L756.361 2189.92L762.513 2193.46L755.419 2193.7L755.428 2200.8L751.674 2194.77L745.531 2198.33L748.871 2192.07L742.719 2188.53L749.814 2188.29L749.805 2181.19Z" fill="#F5F5F5" fill-opacity="0.35"/>
<path d="M568.628 1890.48L573.203 1892.53L575.394 1888.02L575.911 1893.01L580.909 1892.65L576.852 1895.59L579.659 1899.74L575.084 1897.7L572.893 1902.2L572.376 1897.22L567.378 1897.58L571.435 1894.63L568.628 1890.48Z" fill="#F5F5F5" fill-opacity="0.65"/>
<path d="M843.045 1891.86L840.47 1887.57L836.091 1890L838.525 1885.62L834.227 1883.05L839.237 1882.96L839.318 1877.95L841.894 1882.25L846.273 1879.82L843.838 1884.2L848.137 1886.77L843.126 1886.85L843.045 1891.86Z" fill="#F5F5F5" fill-opacity="0.85"/>
</g>
<g clip-path="url(#clip4_87_590)">
<path d="M1394.76 2252.22L1403.55 2253.16L1404.77 2244.41L1408.35 2252.48L1416.54 2249.16L1411.34 2256.31L1418.31 2261.74L1409.52 2260.8L1408.3 2269.56L1404.72 2261.48L1396.53 2264.8L1401.73 2257.66L1394.76 2252.22Z" fill="#F5F5F5" fill-opacity="0.35"/>
<path d="M32.85 2813.4L28.1343 2818.64L31.6581 2824.74L25.2199 2821.87L20.5042 2827.11L21.2409 2820.1L14.8027 2817.24L21.6961 2815.77L22.4328 2808.76L25.9565 2814.87L32.85 2813.4Z" fill="#F5F5F5" fill-opacity="0.75"/>
<path d="M666.01 2600.84L662.942 2595.74L657.137 2597.08L661.045 2592.58L657.977 2587.48L663.461 2589.8L667.37 2585.31L666.85 2591.24L672.334 2593.57L666.529 2594.91L666.01 2600.84Z" fill="#F5F5F5" fill-opacity="0.6"/>
<path d="M259.615 2869.91L265.626 2872.98L268.892 2867.07L269.236 2873.81L275.986 2873.69L270.32 2877.35L273.804 2883.14L267.793 2880.06L264.527 2885.97L264.183 2879.23L257.433 2879.36L263.099 2875.69L259.615 2869.91Z" fill="#F5F5F5" fill-opacity="0.35"/>
<path d="M992.558 2301.9L992.118 2295.59L985.984 2294.06L991.845 2291.69L991.404 2285.39L995.467 2290.23L1001.33 2287.86L997.978 2293.22L1002.04 2298.06L995.908 2296.53L992.558 2301.9Z" fill="#F5F5F5" fill-opacity="0.9"/>
<path d="M861.18 2605.37L864.721 2600.06L862.994 2593.91L868.304 2597.45L874.448 2595.73L870.908 2601.04L872.634 2607.18L867.324 2603.64L861.18 2605.37Z" fill="#F5F5F5" fill-opacity="0.85"/>
<path d="M1011.07 2901.79L1006.83 2896.54L1001.44 2900.61L1003.87 2894.31L997.653 2891.68L1004.32 2890.63L1003.49 2883.93L1007.73 2889.18L1013.12 2885.11L1010.69 2891.41L1016.91 2894.04L1010.24 2895.09L1011.07 2901.79Z" fill="#F5F5F5" fill-opacity="0.65"/>
<path d="M101.537 2449.93L93.8602 2454.37L95.7031 2463.04L89.116 2457.1L81.4397 2461.54L85.045 2453.44L78.4579 2447.51L87.2731 2448.43L90.8784 2440.34L92.7213 2449.01L101.537 2449.93Z" fill="#F5F5F5" fill-opacity="0.6"/>
<path d="M146.304 2612.9L141.269 2610.21L138.421 2615.16L138.229 2609.46L132.523 2609.46L137.366 2606.44L134.507 2601.51L139.542 2604.19L142.389 2599.25L142.581 2604.95L148.288 2604.94L143.444 2607.96L146.304 2612.9Z" fill="#F5F5F5"/>
<path d="M376.585 2292.49L381.72 2298.54L389.658 2298.58L383.604 2303.72L383.562 2311.66L378.427 2305.6L370.489 2305.56L376.542 2300.43L376.585 2292.49Z" fill="#F5F5F5" fill-opacity="0.65"/>
<path d="M1037.52 2512.89L1042.66 2505.28L1035.22 2499.89L1044.39 2500.54L1045.33 2491.4L1049.35 2499.67L1057.74 2495.92L1052.59 2503.53L1060.03 2508.92L1050.87 2508.27L1049.92 2517.4L1045.9 2509.14L1037.52 2512.89Z" fill="#F5F5F5" fill-opacity="0.65"/>
<path d="M154.933 2739.34L162.507 2737.59L163.185 2729.85L167.189 2736.51L174.764 2734.76L169.663 2740.63L173.667 2747.29L166.511 2744.26L161.411 2750.12L162.089 2742.38L154.933 2739.34Z" fill="#F5F5F5" fill-opacity="0.6"/>
<path d="M917.637 2454.07L920.309 2448.34L915.686 2444.03L921.96 2444.8L924.631 2439.07L925.837 2445.27L932.111 2446.04L926.582 2449.11L927.788 2455.31L923.166 2451L917.637 2454.07Z" fill="#F5F5F5" fill-opacity="0.35"/>
<path d="M861.802 2235.16L855.329 2238.23L853.439 2245.13L850.378 2238.66L843.472 2236.77L849.945 2233.71L851.835 2226.8L854.896 2233.27L861.802 2235.16Z" fill="#F5F5F5" fill-opacity="0.65"/>
<path d="M847.114 2345.96L852.801 2348.04L855.062 2342.42L856.105 2348.39L862.1 2347.54L857.457 2351.42L861.191 2356.19L855.504 2354.11L853.243 2359.73L852.199 2353.76L846.204 2354.61L850.847 2350.73L847.114 2345.96Z" fill="#F5F5F5" fill-opacity="0.45"/>
<path d="M1264.2 2844.4L1262.25 2837.57L1255.37 2839.3L1260.3 2834.2L1255.37 2829.1L1262.25 2830.82L1264.2 2824L1266.15 2830.82L1273.03 2829.1L1268.1 2834.2L1273.03 2839.3L1266.15 2837.57L1264.2 2844.4Z" fill="#F5F5F5" fill-opacity="0.9"/>
<path d="M621.695 2804.7L624.265 2810.96L630.693 2813.09L624.429 2815.66L622.302 2822.09L619.732 2815.82L613.304 2813.69L619.568 2811.12L621.695 2804.7Z" fill="#F5F5F5" fill-opacity="0.75"/>
<path d="M1047.16 2787.11L1040.71 2794.6L1042.21 2804.37L1034.71 2797.93L1024.94 2799.42L1031.39 2791.93L1029.89 2782.16L1037.39 2788.6L1047.16 2787.11Z" fill="#F5F5F5" fill-opacity="0.45"/>
<path d="M922.274 2276.31L925.99 2281.43L932.001 2279.47L928.286 2284.59L932.001 2289.7L925.99 2287.75L922.274 2292.86L922.274 2286.54L916.263 2284.59L922.274 2282.63L922.274 2276.31Z" fill="#F5F5F5" fill-opacity="0.6"/>
<path d="M1221.75 2315.33L1225.8 2320.27L1232.18 2320.41L1227.24 2324.46L1227.09 2330.84L1223.05 2325.9L1216.67 2325.75L1221.61 2321.71L1221.75 2315.33Z" fill="#F5F5F5" fill-opacity="0.65"/>
<path d="M685.542 2465.19L681.502 2461.67L677.853 2465.6L678.882 2460.34L673.659 2459.14L678.728 2457.4L677.155 2452.28L681.195 2455.8L684.844 2451.88L683.815 2457.13L689.038 2458.33L683.969 2460.07L685.542 2465.19Z" fill="#F5F5F5" fill-opacity="0.85"/>
<path d="M1414.74 2496.11L1420.54 2489.6L1419.37 2480.96L1425.88 2486.76L1434.52 2485.59L1428.72 2492.1L1429.89 2500.74L1423.38 2494.94L1414.74 2496.11Z" fill="#F5F5F5"/>
<path d="M689.419 2360.07L696.939 2362.62L703.765 2358.57L701.221 2366.08L705.273 2372.91L697.753 2370.37L690.927 2374.42L693.471 2366.9L689.419 2360.07Z" fill="#F5F5F5" fill-opacity="0.6"/>
<path d="M758.805 2695.19L762.559 2701.21L768.702 2697.66L765.361 2703.92L771.513 2707.46L764.419 2707.7L764.428 2714.8L760.674 2708.77L754.531 2712.33L757.871 2706.07L751.719 2702.53L758.814 2702.29L758.805 2695.19Z" fill="#F5F5F5" fill-opacity="0.35"/>
<path d="M577.628 2404.48L582.203 2406.53L584.394 2402.02L584.911 2407.01L589.909 2406.65L585.852 2409.59L588.659 2413.74L584.084 2411.7L581.893 2416.2L581.376 2411.22L576.378 2411.58L580.435 2408.63L577.628 2404.48Z" fill="#F5F5F5" fill-opacity="0.65"/>
<path d="M852.045 2405.86L849.47 2401.57L845.091 2404L847.525 2399.62L843.227 2397.05L848.237 2396.96L848.318 2391.95L850.894 2396.25L855.273 2393.82L852.838 2398.2L857.137 2400.77L852.126 2400.85L852.045 2405.86Z" fill="#F5F5F5" fill-opacity="0.85"/>
</g>
</g>
<defs>
<linearGradient id="paint0_linear_87_590" x1="0" y1="0" x2="2055.99" y2="525.919" gradientUnits="userSpaceOnUse">
<stop stop-color="#EF83F8"/>
<stop offset="0.126354" stop-color="#FFD2B8" stop-opacity="0.56"/>
<stop offset="0.240661" stop-color="#FFF6A5" stop-opacity="0.38"/>
<stop offset="0.426754" stop-color="#73FFC4" stop-opacity="0.4"/>
<stop offset="0.550763" stop-color="#6B8CFF" stop-opacity="0.29"/>
<stop offset="0.705246" stop-color="#D5C1FF"/>
</linearGradient>
<clipPath id="clip0_87_590">
<rect width="1440" height="2934" fill="white"/>
</clipPath>
<clipPath id="clip1_87_590">
<rect width="1431" height="769" fill="white" transform="translate(4)"/>
</clipPath>
<clipPath id="clip2_87_590">
<rect width="1431" height="769" fill="white" transform="translate(0 842)"/>
</clipPath>
<clipPath id="clip3_87_590">
<rect width="1431" height="769" fill="white" transform="translate(0 1651)"/>
</clipPath>
<clipPath id="clip4_87_590">
<rect width="1431" height="769" fill="white" transform="translate(9 2165)"/>
</clipPath>
</defs>
</svg>
