<svg width="38" height="62" viewBox="0 0 38 62" fill="none" xmlns="http://www.w3.org/2000/svg">
<path d="M33.957 2.0625L33.9176 16.6036L29.6176 16.5991L29.657 2.058L33.957 2.0625Z" fill="#3A1D8B"/>
<path d="M21.5195 8.20312L21.4801 22.7443L16.7023 22.7393L16.7418 8.19812L21.5195 8.20312Z" fill="#3A1D8B"/>
<rect width="14.5412" height="3.82222" transform="matrix(-0.00271293 0.999996 -0.999999 -0.00104663 29.6523 3.83984)" fill="#3A1D8B"/>
<rect width="14.5412" height="4.3" transform="matrix(-0.00271293 0.999996 -0.999999 -0.00104663 25.8247 5.61719)" fill="#3A1D8B"/>
<path d="M37.9995 0.164062L37.9601 14.7052L33.6601 14.7007L33.6995 0.159562L37.9995 0.164062Z" fill="#3A1D8B"/>
<path d="M12.4121 18.6602L12.4516 4.11902L8.62934 4.11502L8.58989 18.6562L12.4121 18.6602Z" fill="#3A1D8B"/>
<rect width="14.2444" height="4.3" transform="matrix(0.00271293 -0.999996 -0.999999 -0.00104663 8.59473 16.875)" fill="#3A1D8B"/>
<rect width="14.2444" height="4.3" transform="matrix(0.00271293 -0.999996 -0.999999 -0.00104663 4.2998 14.25)" fill="#3A1D8B"/>
<rect width="14.2444" height="4.3" transform="matrix(0.00271293 -0.999996 -0.999999 -0.00104663 16.7075 20.1484)" fill="#3A1D8B"/>
<path d="M33.957 41.0625L33.9176 55.6036L29.6176 55.5991L29.657 41.058L33.957 41.0625Z" fill="#3A1D8B"/>
<path d="M21.5195 47.2031L21.4801 61.7443L16.7023 61.7393L16.7418 47.1981L21.5195 47.2031Z" fill="#3A1D8B"/>
<rect width="14.5412" height="3.82222" transform="matrix(-0.00271293 0.999996 -0.999999 -0.00104663 29.6523 42.8398)" fill="#3A1D8B"/>
<rect width="14.5412" height="4.3" transform="matrix(-0.00271293 0.999996 -0.999999 -0.00104663 25.8247 44.6172)" fill="#3A1D8B"/>
<path d="M37.9995 39.1641L37.9601 53.7052L33.6601 53.7007L33.6995 39.1596L37.9995 39.1641Z" fill="#3A1D8B"/>
<path d="M12.4121 57.6602L12.4516 43.119L8.62934 43.115L8.58989 57.6562L12.4121 57.6602Z" fill="#3A1D8B"/>
<rect width="14.2444" height="4.3" transform="matrix(0.00271293 -0.999996 -0.999999 -0.00104663 8.59473 55.875)" fill="#3A1D8B"/>
<rect width="14.2444" height="4.3" transform="matrix(0.00271293 -0.999996 -0.999999 -0.00104663 4.2998 53.25)" fill="#3A1D8B"/>
<rect width="14.2444" height="4.3" transform="matrix(0.00271293 -0.999996 -0.999999 -0.00104663 16.7075 59.1484)" fill="#3A1D8B"/>
</svg>
