<svg width="193" height="193" viewBox="0 0 193 193" fill="none" xmlns="http://www.w3.org/2000/svg">
<path d="M160.7 88.1641H31.6591C27.4539 88.1641 24.0449 91.5731 24.0449 95.7783V96.5798C24.0449 100.785 27.4539 104.194 31.6591 104.194H160.7C164.905 104.194 168.314 100.785 168.314 96.5798V95.7783C168.314 91.5731 164.905 88.1641 160.7 88.1641Z" fill="#3A1D8B"/>
<path d="M160.7 128.238H31.6591C27.4539 128.238 24.0449 131.647 24.0449 135.853V136.654C24.0449 140.859 27.4539 144.268 31.6591 144.268H160.7C164.905 144.268 168.314 140.859 168.314 136.654V135.853C168.314 131.647 164.905 128.238 160.7 128.238Z" fill="#3A1D8B"/>
<path d="M160.7 48.0898H31.6591C27.4539 48.0898 24.0449 51.4988 24.0449 55.7041V56.5056C24.0449 60.7108 27.4539 64.1198 31.6591 64.1198H160.7C164.905 64.1198 168.314 60.7108 168.314 56.5056V55.7041C168.314 51.4988 164.905 48.0898 160.7 48.0898Z" fill="#3A1D8B"/>
</svg>
