<svg width="479" height="479" viewBox="0 0 479 479" fill="none" xmlns="http://www.w3.org/2000/svg">
<path d="M400.051 219.479H78.813C68.3444 219.479 59.8579 227.965 59.8579 238.434V240.429C59.8579 250.897 68.3444 259.384 78.813 259.384H400.051C410.52 259.384 419.006 250.897 419.006 240.429V238.434C419.006 227.965 410.52 219.479 400.051 219.479Z" fill="#DAF58C"/>
<path d="M400.051 319.242H78.813C68.3444 319.242 59.8579 327.729 59.8579 338.197V340.192C59.8579 350.661 68.3444 359.148 78.813 359.148H400.051C410.52 359.148 419.006 350.661 419.006 340.192V338.197C419.006 327.729 410.52 319.242 400.051 319.242Z" fill="#DAF58C"/>
<path d="M400.051 119.715H78.813C68.3444 119.715 59.8579 128.201 59.8579 138.67V140.665C59.8579 151.134 68.3444 159.62 78.813 159.62H400.051C410.52 159.62 419.006 151.134 419.006 140.665V138.67C419.006 128.201 410.52 119.715 400.051 119.715Z" fill="#DAF58C"/>
</svg>
