<svg width="234" height="71" viewBox="0 0 234 71" fill="none" xmlns="http://www.w3.org/2000/svg">
<path d="M10.7569 6.16H15.9409V3.568H36.6769V6.16H41.8609V8.752H44.4529V11.344H47.0449V16.528H49.6369V34.672H47.0449V32.08H44.4529V34.672H47.0449V37.264H49.6369V39.856H47.0449V37.264H44.4529V34.672H41.8609V32.08H39.2689V34.672H41.8609V37.264H44.4529V39.856H41.8609V37.264H39.2689V34.672H36.6769V16.528H34.0849V13.936H18.5329V16.528H15.9409V34.672H13.3489V32.08H10.7569V34.672H13.3489V37.264H15.9409V39.856H13.3489V37.264H10.7569V34.672H8.16488V32.08H5.57288V34.672H8.16488V37.264H10.7569V39.856H8.16488V37.264H5.57288V34.672H2.98088V16.528H5.57288V11.344H8.16488V8.752H10.7569V6.16ZM2.98088 37.264H5.57288V39.856H2.98088V37.264ZM36.6769 37.264H39.2689V39.856H36.6769V37.264ZM8.16488 6.16H5.57288V8.752H2.98088V13.936H0.388875V45.04H2.98088V50.224H5.57288V52.816H8.16488V55.408H13.3489V58H21.1249V60.592H23.7169V63.184H26.3089V65.776H28.9009V68.368H34.0849V70.96H47.0449V68.368H52.2289V60.592H49.6369V58H39.2689V55.408H44.4529V52.816H47.0449V50.224H49.6369V45.04H52.2289V13.936H49.6369V8.752H47.0449V6.16H44.4529V3.568H39.2689V0.975996H13.3489V3.568H8.16488V6.16ZM31.4929 19.12H34.0849V39.856H31.4929V42.448H21.1249V39.856H18.5329V19.12H21.1249V16.528H31.4929V19.12ZM62.5729 19.12V16.528H70.3489V19.12H72.9409V34.672H70.3489V32.08H67.7569V34.672H70.3489V37.264H72.9409V39.856H70.3489V37.264H67.7569V34.672H65.1649V32.08H62.5729V34.672H65.1649V37.264H67.7569V39.856H65.1649V37.264H62.5729V34.672H59.9809V19.12H62.5729ZM91.0849 19.12V16.528H98.8609V19.12H101.453V34.672H98.8609V32.08H96.2689V34.672H98.8609V37.264H101.453V39.856H98.8609V37.264H96.2689V34.672H93.6769V32.08H91.0849V34.672H93.6769V37.264H96.2689V39.856H93.6769V37.264H91.0849V34.672H88.4929V19.12H91.0849ZM59.9809 37.264H62.5729V39.856H59.9809V37.264ZM88.4929 37.264H91.0849V39.856H88.4929V37.264ZM57.3889 16.528V47.632H59.9809V52.816H62.5729V55.408H65.1649V58H85.9009V55.408H88.4929V58H101.453V55.408H104.045V16.528H101.453V13.936H88.4929V16.528H85.9009V42.448H80.7169V45.04H78.1249V42.448H75.5329V16.528H72.9409V13.936H59.9809V16.528H57.3889ZM119.601 19.12H124.785V16.528H140.337V19.12H145.521V21.712H148.113V24.304H150.705V32.08H145.521V34.672H142.929V32.08H140.337V24.304H137.745V21.712H127.377V24.304H124.785V34.672H127.377V37.264H124.785V34.672H122.193V32.08H119.601V34.672H122.193V37.264H124.785V39.856H122.193V37.264H119.601V34.672H117.009V32.08H114.417V34.672H117.009V37.264H119.601V39.856H117.009V37.264H114.417V34.672H111.825V29.488H114.417V24.304H117.009V21.712H119.601V19.12ZM140.337 32.08V34.672H142.929V37.264H140.337V34.672H137.745V32.08H140.337ZM135.153 34.672H137.745V37.264H135.153V34.672ZM111.825 37.264H114.417V39.856H111.825V37.264ZM129.969 34.672H132.561V37.264H129.969V34.672ZM114.417 21.712H111.825V26.896H109.233V47.632H111.825V52.816H114.417V55.408H119.601V58H148.113V55.408H153.297V45.04H150.705V42.448H145.521V45.04H129.969V42.448H127.377V39.856H148.113V37.264H150.705V34.672H153.297V21.712H150.705V19.12H148.113V16.528H142.929V13.936H122.193V16.528H117.009V19.12H114.417V21.712ZM135.153 26.896H137.745V29.488H135.153V32.08H127.377V26.896H129.969V24.304H135.153V26.896ZM163.635 24.304V21.712H166.227V19.12H171.411V16.528H189.555V19.12H192.147V24.304H174.003V32.08H176.595V34.672H179.187V37.264H181.779V39.856H179.187V37.264H176.595V34.672H174.003V32.08H171.411V34.672H174.003V37.264H176.595V39.856H174.003V37.264H171.411V34.672H168.819V32.08H166.227V34.672H168.819V37.264H166.227V34.672H163.635V32.08H161.043V24.304H163.635ZM179.187 32.08H181.779V34.672H184.371V37.264H186.963V39.856H184.371V37.264H181.779V34.672H179.187V32.08ZM186.963 34.672H189.555V37.264H192.147V39.856H189.555V37.264H186.963V34.672ZM163.635 19.12H161.043V21.712H158.451V34.672H161.043V37.264H163.635V39.856H168.819V42.448H179.187V45.04H166.227V42.448H161.043V45.04H158.451V55.408H161.043V58H186.963V55.408H192.147V52.816H194.739V50.224H197.331V37.264H194.739V34.672H192.147V32.08H184.371V29.488H176.595V26.896H186.963V29.488H192.147V26.896H194.739V16.528H192.147V13.936H168.819V16.528H163.635V19.12ZM210.257 8.752H212.849V6.16H215.441V8.752H218.033V16.528H228.401V19.12H230.993V21.712H228.401V24.304H218.033V34.672H215.441V32.08H212.849V34.672H215.441V37.264H218.033V39.856H215.441V37.264H212.849V34.672H210.257V32.08H207.665V34.672H210.257V37.264H212.849V39.856H210.257V37.264H207.665V34.672H205.073V24.304H202.481V21.712H199.889V19.12H202.481V16.528H205.073V13.936H207.665V11.344H210.257V8.752ZM205.073 37.264H207.665V39.856H205.073V37.264ZM207.665 8.752H205.073V11.344H202.481V13.936H199.889V16.528H197.297V24.304H199.889V26.896H202.481V47.632H205.073V52.816H207.665V55.408H210.257V58H230.993V55.408H233.585V47.632H230.993V45.04H223.217V42.448H220.625V26.896H230.993V24.304H233.585V16.528H230.993V13.936H220.625V6.16H218.033V3.568H210.257V6.16H207.665V8.752Z" fill="#3A1D8B"/>
</svg>
