<svg width="342" height="240" viewBox="0 0 342 240" fill="none" xmlns="http://www.w3.org/2000/svg">
<rect width="341.847" height="239.15" fill="#F4EDE5"/>
<path d="M83.6247 143C81.2727 143 79.3527 142.28 77.8647 140.84C76.4247 139.352 75.7047 137.384 75.7047 134.936V114.776H66.7767V107.288H75.7047V96.2H84.7767V107.288H94.5687V114.776H84.7767V133.352C84.7767 134.792 85.4487 135.512 86.7927 135.512H93.7047V143H83.6247ZM112.747 144.008C109.195 144.008 106.051 143.264 103.315 141.776C100.627 140.24 98.515 138.104 96.979 135.368C95.491 132.584 94.747 129.32 94.747 125.576V124.712C94.747 120.968 95.491 117.728 96.979 114.992C98.467 112.208 100.555 110.072 103.243 108.584C105.931 107.048 109.051 106.28 112.603 106.28C116.107 106.28 119.155 107.072 121.747 108.656C124.339 110.192 126.355 112.352 127.795 115.136C129.235 117.872 129.955 121.064 129.955 124.712V127.808H103.963C104.059 130.256 104.971 132.248 106.699 133.784C108.427 135.32 110.539 136.088 113.035 136.088C115.579 136.088 117.451 135.536 118.651 134.432C119.851 133.328 120.763 132.104 121.387 130.76L128.803 134.648C128.131 135.896 127.147 137.264 125.851 138.752C124.603 140.192 122.923 141.44 120.811 142.496C118.699 143.504 116.011 144.008 112.747 144.008ZM104.035 121.04H120.739C120.547 118.976 119.707 117.32 118.219 116.072C116.779 114.824 114.883 114.2 112.531 114.2C110.083 114.2 108.139 114.824 106.699 116.072C105.259 117.32 104.371 118.976 104.035 121.04ZM144.078 144.008C141.534 144.008 139.254 143.576 137.238 142.712C135.222 141.8 133.614 140.504 132.414 138.824C131.262 137.096 130.686 135.008 130.686 132.56C130.686 130.112 131.262 128.072 132.414 126.44C133.614 124.76 135.246 123.512 137.31 122.696C139.422 121.832 141.822 121.4 144.51 121.4H154.302V119.384C154.302 117.704 153.774 116.336 152.718 115.28C151.662 114.176 149.982 113.624 147.678 113.624C145.422 113.624 143.742 114.152 142.638 115.208C141.534 116.216 140.814 117.536 140.478 119.168L132.126 116.36C132.702 114.536 133.614 112.88 134.862 111.392C136.158 109.856 137.862 108.632 139.974 107.72C142.134 106.76 144.75 106.28 147.822 106.28C152.526 106.28 156.246 107.456 158.982 109.808C161.718 112.16 163.086 115.568 163.086 120.032V133.352C163.086 134.792 163.758 135.512 165.102 135.512H167.982V143H161.934C160.158 143 158.694 142.568 157.542 141.704C156.39 140.84 155.814 139.688 155.814 138.248V138.176H154.446C154.254 138.752 153.822 139.52 153.15 140.48C152.478 141.392 151.422 142.208 149.982 142.928C148.542 143.648 146.574 144.008 144.078 144.008ZM145.662 136.664C148.206 136.664 150.27 135.968 151.854 134.576C153.486 133.136 154.302 131.24 154.302 128.888V128.168H145.158C143.478 128.168 142.158 128.528 141.198 129.248C140.238 129.968 139.758 130.976 139.758 132.272C139.758 133.568 140.262 134.624 141.27 135.44C142.278 136.256 143.742 136.664 145.662 136.664ZM169.575 157.4V107.288H178.503V111.608H179.799C180.615 110.216 181.887 108.992 183.615 107.936C185.343 106.832 187.815 106.28 191.031 106.28C193.911 106.28 196.575 107 199.023 108.44C201.471 109.832 203.439 111.896 204.927 114.632C206.415 117.368 207.159 120.68 207.159 124.568V125.72C207.159 129.608 206.415 132.92 204.927 135.656C203.439 138.392 201.471 140.48 199.023 141.92C196.575 143.312 193.911 144.008 191.031 144.008C188.871 144.008 187.047 143.744 185.559 143.216C184.119 142.736 182.943 142.112 182.031 141.344C181.167 140.528 180.471 139.712 179.943 138.896H178.647V157.4H169.575ZM188.295 136.088C191.127 136.088 193.455 135.2 195.279 133.424C197.151 131.6 198.087 128.96 198.087 125.504V124.784C198.087 121.328 197.151 118.712 195.279 116.936C193.407 115.112 191.079 114.2 188.295 114.2C185.511 114.2 183.183 115.112 181.311 116.936C179.439 118.712 178.503 121.328 178.503 124.784V125.504C178.503 128.96 179.439 131.6 181.311 133.424C183.183 135.2 185.511 136.088 188.295 136.088ZM227.441 144.008C223.889 144.008 220.697 143.288 217.865 141.848C215.033 140.408 212.801 138.32 211.169 135.584C209.537 132.848 208.721 129.56 208.721 125.72V124.568C208.721 120.728 209.537 117.44 211.169 114.704C212.801 111.968 215.033 109.88 217.865 108.44C220.697 107 223.889 106.28 227.441 106.28C230.993 106.28 234.185 107 237.017 108.44C239.849 109.88 242.081 111.968 243.713 114.704C245.345 117.44 246.161 120.728 246.161 124.568V125.72C246.161 129.56 245.345 132.848 243.713 135.584C242.081 138.32 239.849 140.408 237.017 141.848C234.185 143.288 230.993 144.008 227.441 144.008ZM227.441 135.944C230.225 135.944 232.529 135.056 234.353 133.28C236.177 131.456 237.089 128.864 237.089 125.504V124.784C237.089 121.424 236.177 118.856 234.353 117.08C232.577 115.256 230.273 114.344 227.441 114.344C224.657 114.344 222.353 115.256 220.529 117.08C218.705 118.856 217.793 121.424 217.793 124.784V125.504C217.793 128.864 218.705 131.456 220.529 133.28C222.353 135.056 224.657 135.944 227.441 135.944ZM261.979 143C259.627 143 257.707 142.28 256.219 140.84C254.779 139.352 254.059 137.384 254.059 134.936V114.776H245.131V107.288H254.059V96.2H263.131V107.288H272.923V114.776H263.131V133.352C263.131 134.792 263.803 135.512 265.147 135.512H272.059V143H261.979Z" fill="#1F331A"/>
<path d="M144.896 85C152.572 89.8434 154.254 94.0473 152.982 102.952C152.982 102.952 144.896 100.193 144.196 94.3915C143.496 88.5905 144.896 85 144.896 85Z" fill="#749551"/>
<path d="M166.395 88.5025C165.15 96.9527 161.916 100.161 152.975 102.951C152.975 102.951 152.08 95.0603 157.244 91.9761C162.407 88.8918 166.395 88.5025 166.395 88.5025Z" fill="#749551"/>
</svg>
